HIERARCHY
ROOT base
{
	OFFSET 0.0 0.0 0.0
	CHANNELS 6 Xposition Yposition Zposition Zrotation Yrotation Xrotation
	JOINT root
	{
		OFFSET 0 0 0
		CHANNELS 6 Xposition Yposition Zposition Zrotation Yrotation Xrotation
		JOINT chest
		{
			OFFSET 0 4.72302 0
			CHANNELS 3 Zrotation Yrotation Xrotation
			JOINT neck
			{
				OFFSET 0 4.47788 0
				CHANNELS 3 Zrotation Yrotation Xrotation
				End Site
				{
					OFFSET 0.0 0.0 0.0
				}
			}
			JOINT right_shoulder
			{
				OFFSET -0.481 4.87 3.6622
				CHANNELS 3 Zrotation Yrotation Xrotation
				JOINT right_elbow
				{
					OFFSET 0 -5.49576 0
					CHANNELS 3 Zrotation Yrotation Xrotation
					JOINT right_wrist
					{
						OFFSET 0 -5.17894 0
						CHANNELS 3 Zrotation Yrotation Xrotation
						End Site
						{
							OFFSET 0.0 0.0 0.0
						}
					}
				}
			}
			JOINT left_shoulder
			{
				OFFSET -0.481 4.87 -3.6622
				CHANNELS 3 Zrotation Yrotation Xrotation
				JOINT left_elbow
				{
					OFFSET 0 -5.49576 0
					CHANNELS 3 Zrotation Yrotation Xrotation
					JOINT left_wrist
					{
						OFFSET 0 -5.17894 0
						CHANNELS 3 Zrotation Yrotation Xrotation
						End Site
						{
							OFFSET 0.0 0.0 0.0
						}
					}
				}
			}
		}
		JOINT right_hip
		{
			OFFSET 0 0 1.69774
			CHANNELS 3 Zrotation Yrotation Xrotation
			JOINT right_knee
			{
				OFFSET 0 -8.43092 0
				CHANNELS 3 Zrotation Yrotation Xrotation
				JOINT right_ankle
				{
					OFFSET 0 -8.1974 0
					CHANNELS 3 Zrotation Yrotation Xrotation
					End Site
					{
						OFFSET 0.0 0.0 0.0
					}
				}
			}
		}
		JOINT left_hip
		{
			OFFSET 0 0 -1.69774
			CHANNELS 3 Zrotation Yrotation Xrotation
			JOINT left_knee
			{
				OFFSET 0 -8.43092 0
				CHANNELS 3 Zrotation Yrotation Xrotation
				JOINT left_ankle
				{
					OFFSET 0 -8.1974 0
					CHANNELS 3 Zrotation Yrotation Xrotation
					End Site
					{
						OFFSET 0.0 0.0 0.0
					}
				}
			}
		}
	}
	JOINT red_arrow
	{
		OFFSET 0 0 0
		CHANNELS 3 Zrotation Yrotation Xrotation
		End Site
		{
			OFFSET 0.0 0.0 0.0
		}
	}
	JOINT blue_arrow
	{
		OFFSET 0 0 0
		CHANNELS 3 Zrotation Yrotation Xrotation
		End Site
		{
			OFFSET 0.0 0.0 0.0
		}
	}
}
MOTION
Frames: 12
Frame Time: 0.0333333333333333
163.778367520869 0 42.3396046586335 0 -34.610340606237 0 0 17.1847038626671 0 -5.11897876785776 -0.714494624166623 -1.22983660069184 -3.58033849840103 -2.47916732191554 10.50715236671 -1.50085357319131 2.53297567947573 -1.50271519575957 -14.0192848561367 -10.426189804661 -9.59321710522534 7.70482221398956 0 0 0 0 0 14.6356228354266 -29.1185516582604 22.2005859429118 31.6350661598571 0 0 0 0 0 44.273673857367 -8.53907130765225 -8.06410561489868 -37.359215476813 0 0 -1.77039375988156 -7.73996355696259 -0.929733744980027 -7.9182274220407 13.3534431794034 2.87489631811042 -0.0875596300752983 0 0 13.6466299104476 -6.52888872089897 -4.56088159348028 0 0 0 0 0 0
164.101362653077 0 42.7528954952955 0 -34.6225767858159 0 0 17.011595416069 0 -7.11882452081276 -0.230695249938065 0.0901379177242674 -4.44090466755556 -1.14178056640614 9.23199119368015 -1.33226705450607 3.10452769166796 -1.46377717995712 -14.3693159213805 -11.7322366826367 -8.60295523919303 6.26438483690536 0 0 0 0 0 14.7722192987037 -29.6606030348085 22.9033743279929 32.6657929320308 0 0 0 0 0 40.4622812691843 -10.2408563681597 -7.08624016049661 -27.3687797401054 0 0 -4.29625794788005 -5.57487143067128 0.338716787459799 -7.85411700199364 13.5662792834348 2.14945544924127 0.00145628948325436 0 0 15.3181499725104 -7.07780898449864 -5.6574178864877 0 0 0 0 0 0
164.462847942114 0 43.194133618474 0 -34.6171679423141 0 0 16.7947770953178 0 -9.34922875202218 0.101402910482354 1.69672026086218 -5.20991785221935 0.350140612557866 7.99453462718576 -1.28701328857676 3.60573102994597 -1.56318041958222 -14.6270180913047 -12.9946425203502 -7.97547775310399 5.20295935262021 0 0 0 0 0 14.5697837103747 -29.8845516565434 23.3130197650374 33.3783763228544 0 0 0 0 0 35.8064427087692 -11.3111854123662 -5.69797054970697 -17.6658864297188 0 0 -7.27253779186468 -2.58376286411828 -0.643006302406093 -7.58280921091002 13.720705885043 1.17963147309293 -0.447188706660014 0 0 17.4717370244778 -7.39375286255637 -6.79999032516772 0 0 0 0 0 0
164.6418050915 0 43.5316643863916 0 -34.7990869164599 0 0 16.907701420784 0 -13.1533617521148 -3.36598968705013 1.7127090849673 -5.82725780730208 4.08308802560705 8.39897040451818 -2.13665318950386 4.33971465907653 -1.53247903730616 -13.8984795231033 -13.9541703622204 -8.63470740182259 5.20206502472576 0 0 0 0 0 14.3741875972333 -29.8087309526766 22.8536756647518 33.9828958757248 0 0 0 0 0 35.9556118375367 -9.22136904039479 -2.45661171692371 -13.3660014556662 0 0 -8.93780297805759 -1.56829323087402 -2.17775626643096 -5.31495306272083 14.8262614416103 1.49111077203833 -0.485292090883693 0 0 15.6480070685809 -8.81284677312428 -2.94907117707463 0 0 0 0 0 0
164.927639460564 0 43.988659799099 0 -35.0510322109949 0 0 17.0743335485458 0 -14.9892637274802 -4.62479986454538 1.49596491357403 -4.96215006711967 3.77338226551443 7.39724711239374 -3.7552101878414 3.78477099079618 -0.997617788095943 -14.3042305744063 -14.4082747402704 -8.65558560696791 5.88741901264954 0 0 0 0 0 13.0710210467166 -29.6375037434747 22.4529603945588 34.0485749747836 0 0 0 0 0 33.7377007073387 -8.72159075008071 -0.455141564504684 -9.31781919781226 0 0 -9.17563063120996 -1.1811364061503 -2.61313302972726 -4.01030208197783 15.255858144271 2.42568255989572 -3.47935855424656 0 0 13.1920652131099 -9.9514635615577 0.200654985712498 0 0 0 0 0 0
165.249806720018 0 44.5592883944511 0 -35.4124006804336 0 0 17.155201113224 0 -15.2994611691678 -6.62487130884689 0.143796838596181 -3.96200482575791 1.46183189954445 6.97611720446068 -4.10216943560434 3.1292146019513 -1.07543097727828 -14.2254701462613 -6.70125351416472 -8.61545754564622 6.9693179889718 0 0 0 0 0 11.439613693141 -25.8601898516162 21.9476825337122 33.8496252246395 0 0 0 0 0 31.2158095689786 -7.11466428936102 2.77275854913584 -8.53936802395392 0 0 -7.48435589142919 -1.550701224044 -3.02711513426319 -3.22872601371706 15.6451190906471 3.90697150676109 -7.61781072660548 0 0 11.0920318079342 -9.69763798391987 4.68549620369929 0 0 0 0 0 0
165.56527788043 0 45.148742261529 0 -35.8945533563214 0 0 17.1867902517319 0 -14.8964471257715 -8.8579866179234 -1.55711800288489 -3.06614762589477 -0.468797569569868 6.3123680301899 -3.88540133165491 2.65659845665275 -1.33620304568269 -13.7750719534815 -1.24383645823494 -8.2864775029582 7.94189893385435 0 0 0 0 0 10.1121127391453 -22.963197317707 20.8755074768682 33.3229493377398 0 0 0 0 0 28.8110176941759 -5.52274992714383 6.19209239193262 -9.15512153046162 0 0 -5.1105144155442 -1.57543630993621 -3.5760782410304 -1.91832819843057 15.2443574895803 5.5889521661739 -12.8342268325511 0 0 10.0850004436237 -9.34654832383366 6.79598166657932 0 0 0 0 0 0
165.875108367205 0 45.7266982778907 0 -36.466059874016 0 0 17.195910525322 0 -14.1564357670032 -10.5363602541775 -3.21685832889191 -2.22058045746371 -1.98695581912751 5.35860745134967 -3.48085527671351 2.27864962837925 -2.01606439315862 -12.9949244311571 3.3211078228005 -8.26931599065191 8.80399260428867 0 0 0 0 0 8.65457305563079 -20.1226337336111 19.2755072763283 32.208474201058 0 0 0 0 0 26.4804262687293 -4.51519961498285 9.08908338777723 -10.3266099636928 0 0 -2.47197453665225 -1.15978748640979 -4.1637318407457 0.306076992469835 14.3127281032338 8.17001156590782 -20.4782014525459 0 0 7.74943168580419 -9.48018881129078 7.40843043622993 0 0 0 0 0 0
166.196342340112 0 46.2672075897455 0 -37.1026170083659 0 0 17.199415409565 0 -13.1905244241794 -11.7845287810244 -4.576562397989 -1.22812044110242 -2.80754811199332 4.11226707918261 -3.19717054650911 1.9222318267801 -2.84808847677916 -11.5520199805389 7.4705579551906 -8.50413561067461 9.48603651178592 0 0 0 0 0 6.76183794352537 -16.8817691327943 17.4257676585052 30.4800538504512 0 0 0 0 0 23.9844418505668 -3.4595340614344 11.2863829243017 -11.2745445978422 0 0 -0.00362253923603517 -0.720395055750947 -4.5997917454092 3.78462414456304 12.7860383133794 10.7236536562759 -29.7306284192445 0 0 3.14884723837861 -10.3391640312472 7.12974198354918 0 0 0 0 0 0
166.555063772202 0 46.7731372460723 0 -37.7419211671676 0 0 17.2180396080017 0 -11.7647625632229 -11.8989594893491 -5.47787485460845 -0.233602442074896 -3.18166927102656 2.48921363240276 -3.03800320082988 1.57835734385732 -3.67873799184229 -9.38067451432004 11.1015880601867 -8.78438385727481 10.1914823549269 0 0 0 0 0 4.63570348791262 -13.3469554448257 15.7234805454652 27.9249688744087 0 0 0 0 0 20.7591273001212 -2.89646877438603 12.3098005285452 -11.7478869526078 0 0 2.30580575031301 -0.326622407797868 -4.827279202747 8.66781139095327 10.3669747619487 12.8590763020406 -39.8498405425635 0 0 -2.10642593626127 -10.5165340621358 6.07752476640752 0 0 0 0 0 0
166.97376845479 0 47.2441239088774 0 -38.3267038371889 0 0 17.2592768907547 0 -9.89445761400331 -10.9496306351221 -5.73634802091296 0.654194473827452 -3.01920243488845 0.506470860700209 -2.96397476878298 1.31814213697707 -4.32287000747843 -6.50464545548041 14.2530221078868 -9.12088961514503 11.132462148954 0 0 0 0 0 2.43711525096694 -9.74391131960782 14.3721655761184 24.497952194206 0 0 0 0 0 16.6212960215519 -2.57400112185539 12.1047577471231 -11.4475131621573 0 0 4.35475587636942 -0.263232989516674 -4.79180742817573 14.4439895355587 7.5470234840441 14.3696358387944 -49.809919503505 0 0 -8.13198296407989 -10.0556212876949 4.57652728197197 0 0 0 0 0 0
167.457403963804 0 47.6736192531884 0 -38.8241405759501 0 0 17.3183449149132 0 -7.79332387547932 -9.365556202842 -5.23875374681829 1.3975641274194 -2.30156392683024 -1.71132204497085 -2.98926873651352 1.18802724216807 -4.74875875630907 -3.07647153641187 17.3216351845556 -9.56144472667238 12.4454601489568 0 0 0 0 0 0.241423355569588 -5.99969832492591 13.584994091633 20.4448120727883 0 0 0 0 0 11.6811356049851 -2.56339168705871 10.8112718103476 -10.2018787566173 0 0 6.01813230590583 -0.302892645507204 -4.50114633961516 20.811083485399 5.09699779016518 15.2361010644204 -58.3675386466949 0 0 -12.1811786839971 -8.76274378386824 3.88383640144155 0 0 0 0 0 0
